<svg xmlns="http://www.w3.org/2000/svg" style="display:none">
<symbol id="icon-checked" viewBox="0 0 9 8">

<path d="M7.20117 0.396036L3.42117 5.39604L1.79117 3.28604C1.62806 3.07651 1.3884 2.94037 1.12491 2.90755C0.861421 2.87473 0.595687 2.94793 0.386166 3.11104C0.176645 3.27414 0.0404994 3.5138 0.00768058 3.77729C-0.0251383 4.04078 0.0480575 4.30652 0.211166 4.51604L2.64117 7.62604C2.73534 7.74521 2.85542 7.84137 2.99231 7.90722C3.12919 7.97306 3.27927 8.00685 3.43117 8.00604C3.58388 8.00567 3.73449 7.97033 3.87143 7.90272C4.00837 7.83512 4.12801 7.73705 4.22117 7.61604L8.79117 1.61604C8.95295 1.40386 9.02382 1.13611 8.98819 0.871686C8.95255 0.60726 8.81334 0.367818 8.60117 0.206036C8.38899 0.0442537 8.12124 -0.0266167 7.85682 0.00901524C7.59239 0.0446472 7.35295 0.183863 7.19116 0.396036H7.20117Z" fill="white"/>

</symbol>
<symbol id="icon-line" viewBox="0 0 10 6">

<path d="M8.75 0.75L4.75 4.75L0.75 0.75" stroke="#111111" stroke-width="1.5" stroke-linecap="round" stroke-linejoin="round"/>

</symbol>
<symbol id="icon-search" viewBox="0 0 32 32">

<path d="M25.5 25.5L21.014 21.006L25.5 25.5ZM23.5 15C23.5 17.2543 22.6045 19.4163 21.0104 21.0104C19.4163 22.6045 17.2543 23.5 15 23.5C12.7457 23.5 10.5837 22.6045 8.98959 21.0104C7.39553 19.4163 6.5 17.2543 6.5 15C6.5 12.7457 7.39553 10.5837 8.98959 8.98959C10.5837 7.39553 12.7457 6.5 15 6.5C17.2543 6.5 19.4163 7.39553 21.0104 8.98959C22.6045 10.5837 23.5 12.7457 23.5 15V15Z" stroke="white" stroke-width="2" stroke-linecap="round" stroke-linejoin="round"/>

</symbol>
<symbol id="icon-vector" viewBox="0 0 21 21">

<path d="M21 10.5643C21 4.72966 16.2992 0 10.5013 0C4.70079 0.00131234 0 4.72966 0 10.5656C0 15.8373 3.83989 20.2073 8.85827 21V13.6181H6.19422V10.5656H8.86089V8.23622C8.86089 5.58924 10.4291 4.1273 12.8268 4.1273C13.9764 4.1273 15.1772 4.33333 15.1772 4.33333V6.93176H13.853C12.5499 6.93176 12.143 7.74672 12.143 8.58268V10.5643H15.0538L14.5892 13.6168H12.1417V20.9987C17.1601 20.206 21 15.836 21 10.5643Z" fill="#111111"/>

</symbol>
</svg>
